<svg width="109" height="42" viewBox="0 0 109 42" fill="none" xmlns="http://www.w3.org/2000/svg">
<path d="M33.8567 19.792C33.2167 23.376 32.1714 26.5547 30.7207 29.328C29.3127 32.1013 27.5847 34.4267 25.5367 36.304C23.5314 38.1813 21.2487 39.6107 18.6887 40.592C16.1714 41.5307 13.4834 42 10.6247 42C7.38203 42 4.88603 41.3173 3.1367 39.952C1.38737 38.5867 0.512695 36.816 0.512695 34.64C0.512695 32.8907 1.0887 31.2693 2.2407 29.776C3.43537 28.2827 5.0567 27.1947 7.1047 26.512C7.31803 26.4693 7.46737 26.512 7.5527 26.64C7.63803 26.768 7.63803 26.9387 7.5527 27.152C6.44337 27.7493 5.5687 28.5813 4.9287 29.648C4.33137 30.7147 4.0327 31.9307 4.0327 33.296C4.0327 35.344 4.7367 37.008 6.1447 38.288C7.59537 39.568 9.64337 40.208 12.2887 40.208C14.8487 40.208 17.0887 39.888 19.0087 39.248C20.9287 38.5653 22.5714 37.52 23.9367 36.112C25.302 34.6613 26.4327 32.784 27.3287 30.48C28.2674 28.1333 29.0354 25.296 29.6327 21.968C30.1447 19.024 30.7207 16.5707 31.3607 14.608C32.0007 12.6027 32.6834 10.9387 33.4087 9.616C34.134 8.29333 34.902 7.248 35.7127 6.48C36.566 5.712 37.462 5.09333 38.4007 4.624C37.2914 4.19733 35.99 3.856 34.4967 3.6C33.0034 3.30133 31.3607 3.152 29.5687 3.152C26.9234 3.152 24.6194 3.6 22.6567 4.496C20.694 5.34933 19.1154 6.56533 17.9207 8.144C16.7687 9.68 16.0007 11.5147 15.6167 13.648C15.2327 15.7387 15.2967 18.0213 15.8087 20.496C15.766 20.7093 15.6594 20.8587 15.4887 20.944C15.318 20.9867 15.19 20.9227 15.1047 20.752C14.5074 18.1067 14.4647 15.568 14.9767 13.136C15.4887 10.704 16.47 8.57067 17.9207 6.736C19.414 4.90133 21.3767 3.45066 23.8087 2.384C26.2407 1.27466 29.0994 0.720001 32.3847 0.720001C34.134 0.720001 35.8407 0.933335 37.5047 1.36C39.1687 1.744 40.662 2.21333 41.9847 2.768C42.1554 3.024 42.1554 3.25866 41.9847 3.472C41.814 3.68533 41.3874 3.92 40.7047 4.176C39.8087 4.56 39.0194 5.09333 38.3367 5.776C37.6967 6.45867 37.1207 7.39733 36.6087 8.592C36.0967 9.78667 35.6274 11.3013 35.2007 13.136C34.774 14.9707 34.326 17.1893 33.8567 19.792ZM38.9767 17.296C39.9154 20.624 40.8327 23.632 41.7287 26.32C42.6674 29.008 43.6914 31.312 44.8007 33.232C45.9527 35.1093 47.2114 36.56 48.5767 37.584C49.942 38.5653 51.542 39.056 53.3767 39.056C54.358 39.056 55.2327 38.8213 56.0007 38.352C56.7687 37.84 57.3874 37.2 57.8567 36.432C57.9847 36.304 58.1127 36.3253 58.2407 36.496C58.4114 36.624 58.454 36.7947 58.3687 37.008C57.6007 38.4587 56.534 39.6533 55.1687 40.592C53.846 41.5307 52.3527 42 50.6887 42C48.726 42 46.998 41.424 45.5047 40.272C44.0114 39.0773 42.6674 37.4773 41.4727 35.472C40.3207 33.4667 39.2967 31.1413 38.4007 28.496C37.5474 25.8507 36.758 23.056 36.0327 20.112C35.99 19.8987 35.9687 19.7067 35.9687 19.536C36.0114 19.3227 36.1394 19.1093 36.3527 18.896C38.2727 16.4213 40.2567 14.0747 42.3047 11.856C44.3954 9.63733 46.4647 7.71733 48.5127 6.096C50.5607 4.432 52.5234 3.13066 54.4007 2.192C56.3207 1.21066 58.0914 0.720001 59.7127 0.720001C60.566 0.720001 61.2274 1.04 61.6967 1.68C62.166 2.32 62.4007 3.088 62.4007 3.984C62.4007 4.58133 62.3154 5.28533 62.1447 6.096C62.0167 6.90666 61.846 7.61066 61.6327 8.208C61.2914 8.42133 61.078 8.35733 60.9927 8.016C61.206 6.992 61.0567 6.11733 60.5447 5.392C60.0327 4.624 59.0727 4.24 57.6647 4.24C54.934 4.24 51.9474 5.392 48.7047 7.696C45.462 10 42.2194 13.2 38.9767 17.296ZM78.8312 37.968C78.9165 37.8827 79.0232 37.8827 79.1512 37.968C79.2792 38.0533 79.3219 38.1813 79.2792 38.352C78.5112 39.4613 77.6579 40.3573 76.7192 41.04C75.7805 41.68 74.8845 42 74.0312 42C73.0499 42 72.4099 41.3173 72.1112 39.952C71.8552 38.544 72.0045 36.88 72.5592 34.96C71.4072 36.7947 70.1485 38.3733 68.7832 39.696C67.4605 40.976 66.0525 41.744 64.5592 42C63.5352 42 62.7459 41.5307 62.1912 40.592C61.6365 39.6533 61.3592 38.5653 61.3592 37.328C61.3592 35.92 61.7005 34.5333 62.3832 33.168C63.0659 31.76 63.9619 30.5013 65.0712 29.392C66.2232 28.2827 67.4819 27.3867 68.8472 26.704C70.2552 25.9787 71.6632 25.616 73.0712 25.616C74.5645 25.616 75.7379 25.9787 76.5912 26.704C77.0179 26.4053 77.5512 26.1493 78.1912 25.936C78.8739 25.7227 79.4712 25.616 79.9832 25.616C80.1539 25.616 80.2392 25.7227 80.2392 25.936C79.2579 27.1307 78.4045 28.4533 77.6792 29.904C76.9965 31.312 76.4632 32.6773 76.0792 34C75.6952 35.28 75.4605 36.432 75.3752 37.456C75.2899 38.48 75.3752 39.184 75.6312 39.568C75.8445 39.824 76.2072 39.9093 76.7192 39.824C77.2312 39.696 77.9352 39.0773 78.8312 37.968ZM66.5432 39.632C67.0552 39.632 67.6739 39.312 68.3992 38.672C69.1672 38.032 69.9565 37.1787 70.7672 36.112C71.5779 35.0453 72.3672 33.8507 73.1352 32.528C73.9459 31.2053 74.6499 29.8613 75.2472 28.496C75.0765 27.9413 74.6712 27.4933 74.0312 27.152C73.4339 26.8107 72.7299 26.64 71.9192 26.64C70.9379 26.64 70.0205 26.896 69.1672 27.408C68.3139 27.8773 67.5672 28.56 66.9272 29.456C66.3299 30.3093 65.8392 31.3547 65.4552 32.592C65.1139 33.7867 64.9432 35.1093 64.9432 36.56C64.9432 37.4987 65.0925 38.2453 65.3912 38.8C65.7325 39.3547 66.1165 39.632 66.5432 39.632ZM69.4872 21.776C69.1885 21.776 68.9325 21.648 68.7192 21.392C68.5059 21.0933 68.3992 20.752 68.3992 20.368C68.3992 20.112 68.4632 19.8347 68.5912 19.536C68.7619 19.1947 68.9539 18.8747 69.1672 18.576C69.4232 18.2773 69.7005 18.0213 69.9992 17.808C70.3405 17.5947 70.7032 17.488 71.0872 17.488C71.3005 17.488 71.4925 17.616 71.6632 17.872C71.8765 18.128 71.9832 18.384 71.9832 18.64C71.9832 18.9813 71.8979 19.344 71.7272 19.728C71.5992 20.0693 71.4072 20.3893 71.1512 20.688C70.9379 20.9867 70.6819 21.2427 70.3832 21.456C70.0845 21.6693 69.7859 21.776 69.4872 21.776ZM75.3112 21.776C75.0125 21.776 74.7565 21.648 74.5432 21.392C74.3299 21.0933 74.2232 20.752 74.2232 20.368C74.2232 20.112 74.2872 19.8347 74.4152 19.536C74.5859 19.1947 74.7992 18.8747 75.0552 18.576C75.3112 18.2773 75.5885 18.0213 75.8872 17.808C76.2285 17.5947 76.5912 17.488 76.9752 17.488C77.1885 17.488 77.3805 17.616 77.5512 17.872C77.7645 18.128 77.8712 18.384 77.8712 18.64C77.8712 18.9813 77.7859 19.344 77.6152 19.728C77.4872 20.0693 77.2952 20.3893 77.0392 20.688C76.7832 20.9867 76.5059 21.2427 76.2072 21.456C75.9085 21.6693 75.6099 21.776 75.3112 21.776ZM90.2327 25.616C91.1714 25.616 91.918 25.744 92.4727 26C93.07 26.256 93.3687 26.576 93.3687 26.96C93.3687 27.4293 93.2407 27.9627 92.9847 28.56C92.7714 29.1573 92.558 29.648 92.3447 30.032C92.2594 30.1173 92.1527 30.1387 92.0247 30.096C91.8967 30.0107 91.8327 29.8827 91.8327 29.712C91.9607 29.4133 92.0247 28.9867 92.0247 28.432C92.0247 27.8347 91.854 27.344 91.5127 26.96C91.214 26.576 90.7874 26.384 90.2327 26.384C89.5074 26.384 88.91 26.6187 88.4407 27.088C88.014 27.5147 87.8007 28.1333 87.8007 28.944C87.8007 29.6267 87.9714 30.288 88.3127 30.928C88.6967 31.5253 89.102 32.144 89.5287 32.784C89.998 33.3813 90.4247 34.0427 90.8087 34.768C91.1927 35.4507 91.3847 36.24 91.3847 37.136C91.3847 38.672 90.766 39.8667 89.5287 40.72C88.2914 41.5733 86.67 42 84.6647 42C83.214 42 82.062 41.7653 81.2087 41.296C80.398 40.8267 79.9927 40.3147 79.9927 39.76C79.9927 39.5893 80.0567 39.3547 80.1847 39.056C80.3127 38.7573 80.4834 38.4373 80.6967 38.096C80.91 37.7547 81.1447 37.4133 81.4007 37.072C81.6567 36.7307 81.934 36.4533 82.2327 36.24C82.3607 36.1547 82.4674 36.176 82.5527 36.304C82.6807 36.432 82.702 36.56 82.6167 36.688C82.3607 36.944 82.1687 37.2213 82.0407 37.52C81.9127 37.776 81.8487 38.1387 81.8487 38.608C81.8487 39.376 82.1047 40.016 82.6167 40.528C83.1287 40.9973 83.79 41.232 84.6007 41.232C85.71 41.232 86.5634 40.9333 87.1607 40.336C87.8007 39.696 88.1207 38.928 88.1207 38.032C88.1207 37.2213 87.9287 36.4747 87.5447 35.792C87.2034 35.0667 86.8194 34.384 86.3927 33.744C85.966 33.0613 85.5607 32.3787 85.1767 31.696C84.8354 31.0133 84.6647 30.288 84.6647 29.52C84.6647 28.4107 85.134 27.4933 86.0727 26.768C87.0114 26 88.398 25.616 90.2327 25.616ZM108.668 28.816C108.668 31.248 105.447 32.912 99.0042 33.808C98.9615 34.2347 98.9189 34.6613 98.8762 35.088C98.8762 35.5147 98.8762 35.9627 98.8762 36.432C98.8762 37.5413 99.1322 38.3947 99.6442 38.992C100.156 39.5893 100.967 39.888 102.076 39.888C102.887 39.888 103.719 39.6533 104.572 39.184C105.425 38.7147 106.108 38.1173 106.62 37.392C106.791 37.3067 106.919 37.3493 107.004 37.52C107.089 37.648 107.111 37.7973 107.068 37.968C106.215 39.0773 105.127 40.0373 103.804 40.848C102.524 41.616 101.137 42 99.6442 42C98.1509 42 97.0629 41.6373 96.3802 40.912C95.7402 40.144 95.4202 39.0773 95.4202 37.712C95.4202 36.3893 95.6975 35.024 96.2522 33.616C96.8069 32.1653 97.5109 30.8427 98.3642 29.648C99.2602 28.4533 100.263 27.4933 101.372 26.768C102.524 26 103.676 25.616 104.828 25.616C105.98 25.616 106.897 25.9573 107.58 26.64C108.305 27.28 108.668 28.0053 108.668 28.816ZM103.1 27.28C102.119 27.28 101.265 27.7493 100.54 28.688C99.8575 29.584 99.3882 30.992 99.1322 32.912C101.18 32.6987 102.695 32.3147 103.676 31.76C104.657 31.1627 105.148 30.4373 105.148 29.584C105.148 28.944 104.956 28.4107 104.572 27.984C104.188 27.5147 103.697 27.28 103.1 27.28Z" fill="#E40117"/>
</svg>
